{
  "accessors": [
    {
      "bufferView": 2,
      "componentType": 5126,
      "count": 20,
      "max": [
        1.1956499814987183,
        0.83410000801086426,
        2.5582399368286133
      ],
      "min": [
        -1.1956499814987183,
        -0.95995998382568359,
        0.76165997982025146
      ],
      "type": "VEC3"
    },
    {
      "bufferView": 2,
      "byteOffset": 240,
      "componentType": 5126,
      "count": 20,
      "max": [
        0.95871537923812866,
        -0.28297159075737,
        0.84261530637741089
      ],
      "min": [
        -0.95871537923812866,
        -0.94730740785598755,
        0.028140157461166382
      ],
      "type": "VEC3"
    },
    {
      "bufferView": 3,
      "componentType": 5126,
      "count": 20,
      "max": [
        0.031676549464464188,
        0.007928880862891674,
        -0.53851616382598877,
        1
      ],
      "min": [
        -0.031102400273084641,
        -0.84261524677276611,
        -0.99960213899612427,
        1
      ],
      "type": "VEC4"
    },
    {
      "bufferView": 1,
      "componentType": 5126,
      "count": 20,
      "max": [
        0.74572998285293579,
        0.85335999727249146
      ],
      "min": [
        0.10034999996423721,
        0.084629997611045837
      ],
      "type": "VEC2"
    },
    {
      "bufferView": 0,
      "componentType": 5125,
      "count": 36,
      "max": [
        19
      ],
      "min": [
        0
      ],
      "type": "SCALAR"
    },
    {
      "bufferView": 2,
      "byteOffset": 480,
      "componentType": 5126,
      "count": 208,
      "max": [
        2.8223099708557129,
        5.8991098403930664,
        2.1554598808288574
      ],
      "min": [
        -2.8223099708557129,
        -1.7436399459838867,
        -0.25045999884605408
      ],
      "type": "VEC3"
    },
    {
      "bufferView": 2,
      "byteOffset": 2976,
      "componentType": 5126,
      "count": 208,
      "max": [
        0,
        1,
        0
      ],
      "min": [
        0,
        -1,
        0
      ],
      "type": "VEC3"
    },
    {
      "bufferView": 3,
      "byteOffset": 320,
      "componentType": 5126,
      "count": 208,
      "max": [
        0.093098655343055725,
        0,
        0.99956011772155762,
        1
      ],
      "min": [
        -0.10809236764907837,
        0,
        -0.99998682737350464,
        1
      ],
      "type": "VEC4"
    },
    {
      "bufferView": 0,
      "byteOffset": 144,
      "componentType": 5125,
      "count": 564,
      "max": [
        207
      ],
      "min": [
        0
      ],
      "type": "SCALAR"
    },
    {
      "bufferView": 2,
      "byteOffset": 5472,
      "componentType": 5126,
      "count": 326,
      "max": [
        2.9650099277496338,
        6.5873298645019531,
        2.6400001049041748
      ],
      "min": [
        -2.9650099277496338,
        1.3754700422286987,
        -0.13683000206947327
      ],
      "type": "VEC3"
    },
    {
      "bufferView": 2,
      "byteOffset": 9384,
      "componentType": 5126,
      "count": 326,
      "max": [
        0.9927520751953125,
        0.85683315992355347,
        0.9999956488609314
      ],
      "min": [
        -0.9927520751953125,
        -0.99105381965637207,
        -0.9927520751953125
      ],
      "type": "VEC3"
    },
    {
      "bufferView": 3,
      "byteOffset": 3648,
      "componentType": 5126,
      "count": 326,
      "max": [
        0.99978125095367432,
        0.51598817110061646,
        0.9999922513961792,
        1
      ],
      "min": [
        -1,
        -0.99275201559066772,
        -0.99999749660491943,
        1
      ],
      "type": "VEC4"
    },
    {
      "bufferView": 0,
      "byteOffset": 2400,
      "componentType": 5125,
      "count": 828,
      "max": [
        325
      ],
      "min": [
        0
      ],
      "type": "SCALAR"
    },
    {
      "bufferView": 2,
      "byteOffset": 13296,
      "componentType": 5126,
      "count": 2692,
      "max": [
        3.3100399971008301,
        7.2859601974487305,
        3.0743100643157959
      ],
      "min": [
        -3.3100399971008301,
        -1.0300500392913818,
        -0.71411997079849243
      ],
      "type": "VEC3"
    },
    {
      "bufferView": 2,
      "byteOffset": 45600,
      "componentType": 5126,
      "count": 2692,
      "max": [
        1,
        1,
        1
      ],
      "min": [
        -1,
        -1,
        -1
      ],
      "type": "VEC3"
    },
    {
      "bufferView": 3,
      "byteOffset": 8864,
      "componentType": 5126,
      "count": 2692,
      "max": [
        0.99957883358001709,
        1,
        1,
        1
      ],
      "min": [
        -0.99957877397537231,
        -1,
        -1,
        1
      ],
      "type": "VEC4"
    },
    {
      "bufferView": 1,
      "byteOffset": 160,
      "componentType": 5126,
      "count": 2692,
      "max": [
        0.99788999557495117,
        0.99247997999191284
      ],
      "min": [
        0.0012900000438094139,
        0.0012900000438094139
      ],
      "type": "VEC2"
    },
    {
      "bufferView": 0,
      "byteOffset": 5712,
      "componentType": 5125,
      "count": 7296,
      "max": [
        2691
      ],
      "min": [
        0
      ],
      "type": "SCALAR"
    },
    {
      "bufferView": 2,
      "byteOffset": 77904,
      "componentType": 5126,
      "count": 7402,
      "max": [
        3.7534399032592773,
        7.5449399948120117,
        3.1131200790405273
      ],
      "min": [
        -3.7534399032592773,
        -2.0561399459838867,
        -0.73224002122879028
      ],
      "type": "VEC3"
    },
    {
      "bufferView": 2,
      "byteOffset": 166728,
      "componentType": 5126,
      "count": 7402,
      "max": [
        1,
        1,
        1
      ],
      "min": [
        -1,
        -1,
        -1
      ],
      "type": "VEC3"
    },
    {
      "bufferView": 3,
      "byteOffset": 51936,
      "componentType": 5126,
      "count": 7402,
      "max": [
        1,
        1,
        1,
        1
      ],
      "min": [
        -1,
        -1,
        -1,
        1
      ],
      "type": "VEC4"
    },
    {
      "bufferView": 1,
      "byteOffset": 21696,
      "componentType": 5126,
      "count": 7402,
      "max": [
        0.99870997667312622,
        0.99870997667312622
      ],
      "min": [
        0.0012900000438094139,
        0.0012900000438094139
      ],
      "type": "VEC2"
    },
    {
      "bufferView": 0,
      "byteOffset": 34896,
      "componentType": 5125,
      "count": 22920,
      "max": [
        7401
      ],
      "min": [
        0
      ],
      "type": "SCALAR"
    }
  ],
  "asset": {
    "extras": {
      "author": "FDU_oficial (https://sketchfab.com/FDU_oficial)",
      "license": "CC-BY-4.0 (http://creativecommons.org/licenses/by/4.0/)",
      "source": "https://sketchfab.com/models/5103d6184e9f4561b9ecd1cae029bcf5",
      "title": "cargo spaceship"
    },
    "generator": "Sketchfab-3.18.6",
    "version": "2.0"
  },
  "bufferViews": [
    {
      "buffer": 0,
      "byteLength": 126576,
      "byteOffset": 0,
      "name": "floatBufferViews",
      "target": 34963
    },
    {
      "buffer": 0,
      "byteLength": 80912,
      "byteOffset": 126576,
      "byteStride": 8,
      "name": "floatBufferViews",
      "target": 34962
    },
    {
      "buffer": 0,
      "byteLength": 255552,
      "byteOffset": 207488,
      "byteStride": 12,
      "name": "floatBufferViews",
      "target": 34962
    },
    {
      "buffer": 0,
      "byteLength": 170368,
      "byteOffset": 463040,
      "byteStride": 16,
      "name": "floatBufferViews",
      "target": 34962
    }
  ],
  "buffers": [
    {
      "byteLength": 633408,
      "uri": "scene.bin"
    }
  ],
  "images": [
    {
      "uri": "textures/DETAIL_baseColor.png"
    },
    {
      "uri": "textures/glass_baseColor.png"
    },
    {
      "uri": "textures/SHIP_baseColor.png"
    }
  ],
  "materials": [
    {
      "doubleSided": true,
      "emissiveFactor": [
        0,
        0,
        0
      ],
      "name": "SHIP",
      "pbrMetallicRoughness": {
        "baseColorFactor": [
          1,
          1,
          1,
          1
        ],
        "baseColorTexture": {
          "index": 2,
          "texCoord": 0
        },
        "metallicFactor": 0,
        "roughnessFactor": 0
      }
    },
    {
      "doubleSided": true,
      "emissiveFactor": [
        0,
        0,
        0
      ],
      "name": "glass",
      "pbrMetallicRoughness": {
        "baseColorFactor": [
          1,
          1,
          1,
          1
        ],
        "baseColorTexture": {
          "index": 1,
          "texCoord": 0
        },
        "metallicFactor": 0,
        "roughnessFactor": 0
      }
    },
    {
      "doubleSided": true,
      "emissiveFactor": [
        0.48259345300000001,
        1,
        1
      ],
      "name": "engine",
      "pbrMetallicRoughness": {
        "baseColorFactor": [
          0.2947600782,
          0.7546364069,
          0.80000007149999997,
          1
        ],
        "metallicFactor": 0,
        "roughnessFactor": 0.59999999999999998
      }
    },
    {
      "doubleSided": true,
      "emissiveFactor": [
        0.37097109299999997,
        1,
        1
      ],
      "name": "engine2",
      "pbrMetallicRoughness": {
        "baseColorFactor": [
          0.062788195899999996,
          0.80000007149999997,
          0.80000007149999997,
          1
        ],
        "metallicFactor": 0,
        "roughnessFactor": 0.59999999999999998
      }
    },
    {
      "doubleSided": true,
      "emissiveFactor": [
        0,
        0,
        0
      ],
      "name": "DETAIL",
      "pbrMetallicRoughness": {
        "baseColorFactor": [
          1,
          1,
          1,
          1
        ],
        "baseColorTexture": {
          "index": 0,
          "texCoord": 0
        },
        "metallicFactor": 0,
        "roughnessFactor": 0.2421875
      }
    }
  ],
  "meshes": [
    {
      "name": "Cube.002_1",
      "primitives": [
        {
          "attributes": {
            "NORMAL": 1,
            "POSITION": 0,
            "TANGENT": 2,
            "TEXCOORD_0": 3
          },
          "indices": 4,
          "material": 1,
          "mode": 4
        }
      ]
    },
    {
      "name": "Cube.002_2",
      "primitives": [
        {
          "attributes": {
            "NORMAL": 6,
            "POSITION": 5,
            "TANGENT": 7
          },
          "indices": 8,
          "material": 2,
          "mode": 4
        }
      ]
    },
    {
      "name": "Cube.002_3",
      "primitives": [
        {
          "attributes": {
            "NORMAL": 10,
            "POSITION": 9,
            "TANGENT": 11
          },
          "indices": 12,
          "material": 3,
          "mode": 4
        }
      ]
    },
    {
      "name": "Cube.002_5",
      "primitives": [
        {
          "attributes": {
            "NORMAL": 14,
            "POSITION": 13,
            "TANGENT": 15,
            "TEXCOORD_0": 16
          },
          "indices": 17,
          "material": 4,
          "mode": 4
        }
      ]
    },
    {
      "name": "Cube.002_0",
      "primitives": [
        {
          "attributes": {
            "NORMAL": 19,
            "POSITION": 18,
            "TANGENT": 20,
            "TEXCOORD_0": 21
          },
          "indices": 22,
          "material": 0,
          "mode": 4
        }
      ]
    }
  ],
  "nodes": [
    {
      "children": [
        1
      ],
      "name": "RootNode (gltf orientation matrix)",
      "rotation": [
        -0.70710678118654746,
        -0,
        -0,
        0.70710678118654757
      ]
    },
    {
      "children": [
        2
      ],
      "name": "RootNode (model correction matrix)"
    },
    {
      "children": [
        3,
        5,
        7,
        9
      ],
      "name": "Root"
    },
    {
      "children": [
        4
      ],
      "matrix": [
        -0.29192000000000007,
        0.95147999999999999,
        -0.097280000000000033,
        0,
        -0.84471000000000007,
        -0.20878000000000002,
        0.49282000000000009,
        0,
        0.44860000000000005,
        0.22603000000000004,
        0.86468000000000012,
        0,
        4.0762500000000008,
        1.00545,
        5.9038600000000008,
        1
      ],
      "name": "Lamp"
    },
    {
      "name": "Lamp"
    },
    {
      "children": [
        6
      ],
      "matrix": [
        1,
        0,
        0,
        0,
        0,
        1,
        0,
        0,
        0,
        0,
        1,
        0,
        -3.3609800000000001,
        -2.7550599999999998,
        6.7309099999999997,
        1
      ],
      "name": "Hemi"
    },
    {
      "name": "Hemi"
    },
    {
      "children": [
        8
      ],
      "matrix": [
        1,
        0,
        0,
        0,
        0,
        -1,
        -0,
        0,
        0,
        0,
        -1,
        0,
        -3.52834,
        -0.7477100000000001,
        2.0926099999999996,
        1
      ],
      "name": "Hemi.001"
    },
    {
      "name": "Hemi.001"
    },
    {
      "children": [
        10,
        11,
        12,
        13,
        14
      ],
      "matrix": [
        -0.59353,
        -0,
        0,
        0,
        0,
        -0.59353,
        0,
        0,
        0,
        0,
        0.59353,
        0,
        1.0301899999999999,
        0.67269000000000023,
        -0.024830000000000001,
        1
      ],
      "name": "Cube.002"
    },
    {
      "mesh": 0,
      "name": "Cube.002_1"
    },
    {
      "mesh": 1,
      "name": "Cube.002_2"
    },
    {
      "mesh": 2,
      "name": "Cube.002_3"
    },
    {
      "mesh": 3,
      "name": "Cube.002_5"
    },
    {
      "mesh": 4,
      "name": "Cube.002_0"
    }
  ],
  "samplers": [
    {
      "magFilter": 9729,
      "minFilter": 9987,
      "wrapS": 10497,
      "wrapT": 10497
    }
  ],
  "scene": 0,
  "scenes": [
    {
      "name": "OSG_Scene",
      "nodes": [
        0
      ]
    }
  ],
  "textures": [
    {
      "sampler": 0,
      "source": 0
    },
    {
      "sampler": 0,
      "source": 1
    },
    {
      "sampler": 0,
      "source": 2
    }
  ]
}

